<svg width="34" height="33" viewBox="0 0 34 33" fill="none" xmlns="http://www.w3.org/2000/svg">
<path d="M0 16.3234C0 7.30823 7.30823 0 16.3234 0V0C25.3385 0 32.6467 7.30823 32.6467 16.3234V16.3234C32.6467 25.3385 25.3385 32.6467 16.3234 32.6467V32.6467C7.30823 32.6467 0 25.3385 0 16.3234V16.3234Z" fill="#C28455"/>
<path d="M13.2426 9.12836C12.7121 9.65887 12.7121 10.5158 13.2426 11.0464L18.5205 16.3242L13.2426 21.6021C12.7121 22.1326 12.7121 22.9896 13.2426 23.5201C13.7731 24.0506 14.6301 24.0506 15.1606 23.5201L21.4043 17.2764C21.9348 16.7459 21.9348 15.889 21.4043 15.3584L15.1606 9.11476C14.6437 8.59785 13.7731 8.59785 13.2426 9.12836Z" fill="white"/>
</svg>
