<svg width="33" height="33" viewBox="0 0 33 33" fill="none" xmlns="http://www.w3.org/2000/svg">
<path d="M0 16.3234C0 7.30823 7.30823 0 16.3234 0V0C25.3385 0 32.6467 7.30823 32.6467 16.3234V16.3234C32.6467 25.3385 25.3385 32.6467 16.3234 32.6467V32.6467C7.30823 32.6467 0 25.3385 0 16.3234V16.3234Z" fill="#448422"/>
<path d="M16.323 4.9877C10.0657 4.9877 4.9873 10.0661 4.9873 16.3234C4.9873 22.5807 10.0657 27.6591 16.323 27.6591C22.5803 27.6591 27.6587 22.5807 27.6587 16.3234C27.6587 10.0661 22.5803 4.9877 16.323 4.9877ZM16.323 25.3919C11.3239 25.3919 7.25444 21.3224 7.25444 16.3234C7.25444 11.3243 11.3239 7.25484 16.323 7.25484C21.322 7.25484 25.3915 11.3243 25.3915 16.3234C25.3915 21.3224 21.322 25.3919 16.323 25.3919ZM21.5261 11.313L14.0558 18.7832L11.1199 15.8586L9.52158 17.4569L14.0558 21.9912L23.1244 12.9227L21.5261 11.313Z" fill="white"/>
</svg>
